# xmcd
#
# Track frame offsets: 
#        150
#        5600
#        19023
#        32870
#        46600
#        54761
#        65725
#        90855
#        102817
#        115460
#        127607
#        144370
#        155196
#        174238
#        190399
#
# Disc length: 2794 seconds
#
# Revision: 1
# Processed by: cddbd v1.5.2PL0 Copyright (c) Steve Scherf et al.
# Submitted via: ExactAudioCopy v0.95b4
#
DISCID=b60ae80f
DTITLE=Jimi Hendrix - Axis Bold As Love Mono (Prof. Stoned Needledrop 
DTITLE=Cmd 612003)
DYEAR=1900
DGENRE=
TTITLE0=Exp
TTITLE1=Up From The Skies
TTITLE2=Spanish Castle Magic
TTITLE3=Wait Untill Tomorrow
TTITLE4=Ain't No Telling
TTITLE5=Little Wing
TTITLE6=If 6 Was 9
TTITLE7=You Got Me Floating
TTITLE8=Castles Made Of Sand
TTITLE9=She's So Fine
TTITLE10=One Rainy Wish
TTITLE11=Little Miss Lover
TTITLE12=Bold as Love
TTITLE13=Burning Of The Midnight Lamp
TTITLE14=The Stars That Play With Laughing Sam's Dice
EXTD=
EXTT0=
EXTT1=
EXTT2=
EXTT3=
EXTT4=
EXTT5=
EXTT6=
EXTT7=
EXTT8=
EXTT9=
EXTT10=
EXTT11=
EXTT12=
EXTT13=
EXTT14=
PLAYORDER=
